# xmcd CD database file
#
# Track frame offsets:
#	150
#	15074
#	38609
#	56042
#	71085
#	86769
#	102237
#	119635
#	135507
#	153163
#	170150
#	185945
#
# Disc length: 2697 seconds
#
# Revision: 0
# Processed by: cddbd v1.5.2PL0 Copyright (c) Steve Scherf et al.
# Submitted via: CDex 1.70beta2
#
DISCID=a10a870c
DTITLE=Riley, Billy Lee - Can. - Hillbilly Rockin' Man
DYEAR=1900
DGENRE=Country
TTITLE0=Hillbilly Rockin' Man
TTITLE1=The Song Writer
TTITLE2=I'm So Glad(She's My Woman)
TTITLE3=Paradise Ballroom
TTITLE4=Please Don't Play Anymore(Hurtin" Songs)
TTITLE5=Don't You Do Me Dirty
TTITLE6=Little Peice of Bottom Land
TTITLE7=Head Over Heels
TTITLE8=Country Star
TTITLE9=The Bottle
TTITLE10=Be My Honey Tonight
TTITLE11=Talk To Me Softly
EXTD=
EXTT0=
EXTT1=
EXTT2=
EXTT3=
EXTT4=
EXTT5=
EXTT6=
EXTT7=
EXTT8=
EXTT9=
EXTT10=
EXTT11=
PLAYORDER=
